<mxfile host="app.diagrams.net" modified="2023-07-22T13:06:06.297Z" agent="Mozilla/5.0 (Windows NT 10.0; Win64; x64) AppleWebKit/537.36 (KHTML, like Gecko) Chrome/115.0.0.0 Safari/537.36" etag="AHJfZ2gstPLjW7AmhjlK" version="21.6.5" type="github">
  <diagram name="Страница 1" id="6sGwKlgkt_84N75d3TjK">
    <mxGraphModel dx="989" dy="545" grid="1" gridSize="10" guides="1" tooltips="1" connect="1" arrows="1" fold="1" page="1" pageScale="1" pageWidth="827" pageHeight="1169" math="0" shadow="0">
      <root>
        <mxCell id="0" />
        <mxCell id="1" parent="0" />
        <mxCell id="pyEIFMnMcUmfsU9fEsHl-2" value="&lt;font style=&quot;font-size: 16px;&quot;&gt;api.openagro.ru&lt;/font&gt;" style="text;html=1;strokeColor=none;fillColor=none;align=center;verticalAlign=middle;whiteSpace=wrap;rounded=0;" vertex="1" parent="1">
          <mxGeometry x="338" y="10" width="150" height="30" as="geometry" />
        </mxCell>
        <mxCell id="pyEIFMnMcUmfsU9fEsHl-4" value="&lt;h1&gt;Серверная часть openagro&lt;/h1&gt;&lt;p&gt;Запросы с frontend (клиентской части) приходят на текщее API&lt;/p&gt;" style="text;html=1;strokeColor=none;fillColor=none;spacing=5;spacingTop=-20;whiteSpace=wrap;overflow=hidden;rounded=0;" vertex="1" parent="1">
          <mxGeometry x="8" y="60" width="810" height="120" as="geometry" />
        </mxCell>
      </root>
    </mxGraphModel>
  </diagram>
</mxfile>
